<svg id="Layer_2" data-name="Layer 2" xmlns="http://www.w3.org/2000/svg" viewBox="0 0 55 55"><defs><style>.cls-1{fill:none;stroke:#071814;stroke-linecap:round;stroke-linejoin:round;stroke-width:2.22px;}</style></defs><path class="cls-1" d="M27.5,52.5H39.42c9.14,0,11.93-10,11.93-10H3.65s2.79,10,11.93,10Z"/><line class="cls-1" x1="27.46" y1="11.71" x2="3.65" y2="41.64"/><line class="cls-1" x1="27.46" y1="11.71" x2="51.26" y2="41.64"/><circle class="cls-1" cx="27.35" cy="8.79" r="2.91"/><line class="cls-1" x1="26.8" y1="5.83" x2="26.8" y2="2.5"/><path class="cls-1" d="M19.4,42.08s-5.21-1.78-4.69-8.33c0,0,6.67.42,9.74,8.21,0,0-1.75-4.67,2.92-9.52"/><path class="cls-1" d="M35.34,42.08S40.55,40.3,40,33.75c0,0-6.67.42-9.74,8.21,0,0,1.75-4.67-2.92-9.52"/><path class="cls-1" d="M18.9,35.21s-.1-2.75,3-6.3c0,0,3.7,2.8,4.19,5.11"/><path class="cls-1" d="M35.84,35.21s.11-2.75-3-6.3c0,0-3.71,2.8-4.2,5.11"/><path class="cls-1" d="M23.54,30.36s1.48-3.93,3.82-5.54"/><path class="cls-1" d="M31.18,30.36s-1.48-3.93-3.82-5.54"/></svg>